<svg xmlns="http://www.w3.org/2000/svg" viewBox="0 0 600.86 99.93"><defs><style>.cls-1{fill:#fff;}.cls-2{fill:#31c4f3;}.cls-3{fill:#4a76b0;}</style></defs><g id="Layer_2" data-name="Layer 2"><g id="Layer_1-2" data-name="Layer 1"><path class="cls-1" d="M125.63,79.38,133.15,78Q137.7,89.3,152.84,89.3q7.91,0,11.92-2.79a8.71,8.71,0,0,0,4-7.49,6.67,6.67,0,0,0-3.06-5.71,18.15,18.15,0,0,0-7.05-3l-13.35-2.75a39,39,0,0,1-8.47-2.66,14.39,14.39,0,0,1-5.59-4.83,12.56,12.56,0,0,1-2.3-7.45c0-4.64,2.1-8.35,6.3-11.1s9.59-4.14,16.17-4.14q18.18,0,23.89,13.71L167.74,53a11.45,11.45,0,0,0-6.21-7.38,22.44,22.44,0,0,0-10.4-2.5,19.47,19.47,0,0,0-9.75,2.41q-4.27,2.41-4.27,6.82,0,6.18,10.83,8.34l12.47,2.43q17.1,3.42,17.1,15.34,0,7.2-6.42,12T153,95.2Q132.26,95.2,125.63,79.38Z"/><path class="cls-1" d="M194.6,79.38,202.12,78q4.55,11.34,19.69,11.34,7.92,0,11.92-2.79a8.71,8.71,0,0,0,4-7.49,6.67,6.67,0,0,0-3.06-5.71,18.15,18.15,0,0,0-7.05-3l-13.34-2.75a38.91,38.91,0,0,1-8.48-2.66,14.39,14.39,0,0,1-5.59-4.83,12.56,12.56,0,0,1-2.3-7.45c0-4.64,2.1-8.35,6.3-11.1s9.59-4.14,16.17-4.14q18.18,0,23.89,13.71L236.71,53a11.45,11.45,0,0,0-6.21-7.38,22.44,22.44,0,0,0-10.4-2.5,19.47,19.47,0,0,0-9.75,2.41q-4.28,2.41-4.27,6.82,0,6.18,10.83,8.34l12.47,2.43q17.1,3.42,17.1,15.34,0,7.2-6.42,12T222,95.2Q201.23,95.2,194.6,79.38Z"/><path class="cls-1" d="M314,88v6.1H270.89V38.54H313.1v6.11H279.25V62.3h26.87V68H279.25V88Z"/><path class="cls-1" d="M402.11,94.06H394V45.58L372.35,94.06h-5.67L344.8,45.58V94.06h-7.09V38.54h12.37L370.23,83l19.66-44.41h12.22Z"/><path class="cls-1" d="M430.77,94.06V38.54h26.38q10,0,14.78,4.07T476.74,52q0,9.42-11.82,12.51,7,1.52,10.46,5.38a12.87,12.87,0,0,1,3.41,8.75,13.71,13.71,0,0,1-5.3,11q-5.3,4.41-16.34,4.41Zm8.06-31.72h14.51q9,0,12.07-2.87a9,9,0,0,0,3-6.73,7.31,7.31,0,0,0-3.25-6.18q-3.26-2.37-9.7-2.36H438.83Zm0,25.62h17.88q6.56,0,10.11-2.64a8.17,8.17,0,0,0,3.57-6.88,10.17,10.17,0,0,0-1.61-5.51A10.57,10.57,0,0,0,464.24,69c-2-.92-4.87-1.39-8.75-1.39H438.83Z"/><path class="cls-1" d="M542.64,88v6.1H503.26V38.54h8.55V88Z"/><path class="cls-1" d="M600.86,38.54,578.53,70.72V94.06h-8.36V70.72L547.85,38.54h9.88l17.69,25.51,17.82-25.51Z"/><path class="cls-2" d="M101.44,99.63a14,14,0,0,1-12-7.21q-10.75-18-21.61-35.91Q57.53,39.46,47.23,22.38c-.61-1-1.21-2-1.76-3.05a13.06,13.06,0,0,1,4.78-17.4C56.37-1.68,64-.15,67.81,5.87c6.14,9.75,12,19.68,18,29.55,8.53,14.14,17,28.31,25.59,42.41,2.88,4.72,4.14,9.48,1.41,14.66C110.3,97.17,106.22,99.25,101.44,99.63Z"/><path class="cls-3" d="M13.13,99.93a13.32,13.32,0,0,1-11.29-20C7.53,70,13.52,60.24,19.38,50.43c1.3-2.18,2.54-4.4,3.92-6.53,5.28-8.15,16.68-8.46,21.83-.25,7.58,12.08,14.8,24.38,22,36.7A12.94,12.94,0,0,1,50.61,98.43c-2.42-1-4.77-2.24-7.12-3.45a18.85,18.85,0,0,0-18.26,0c-2.08,1.07-4.15,2.19-6.31,3.09C17.05,98.83,15.06,99.32,13.13,99.93Z"/></g></g></svg>